Coordinates
version=1
nRows=6
nColumns=36
inDegrees=yes

Units are S.I. units (second, meters, Newtons, ...)
If the header above contains a line with 'inDegrees', this indicates whether rotational values are in degrees (yes) or radians (no).

endheader
time	pelvis_tilt	pelvis_list	pelvis_rotation	pelvis_tx	pelvis_ty	pelvis_tz	hip_flexion_r	hip_adduction_r	hip_rotation_r	knee_angle_r	knee_angle_r_beta	ankle_angle_r	subtalar_angle_r	mtp_angle_r	hip_flexion_l	hip_adduction_l	hip_rotation_l	knee_angle_l	knee_angle_l_beta	ankle_angle_l	subtalar_angle_l	mtp_angle_l	lumbar_extension	lumbar_bending	lumbar_rotation	arm_flex_r	arm_add_r	arm_rot_r	elbow_flex_r	pro_sup_r	arm_flex_l	arm_add_l	arm_rot_l	elbow_flex_l	pro_sup_l
      2.97083330	    -18.65041093	      2.22607603	      2.23959669	      0.29678735	      1.11426834	     -0.02186251	     27.44870068	     -6.28571131	    -15.58853330	      7.22567891	      0.12611189	    -22.42663322	     -8.42288649	     -7.49999987	     31.72795172	     -5.54228908	     -0.30261204	     14.12051603	      0.24644950	    -24.25306714	      0.52052387	     -7.49999987	     -6.47026038	     -1.00752326	     -1.68186611	    -11.97982822	    -17.58049964	     12.31436526	     26.23066943	     59.68663113	    -22.86992706	    -46.23435284	    -39.14189534	     16.17660432	     52.91386980
      2.97500000	    -18.69713573	      2.35761081	      2.26246575	      0.29664855	      1.10719995	     -0.02139316	     27.56511856	     -6.52537781	    -15.55985233	      6.79100265	      0.11852536	    -22.99176114	     -7.45953501	     -7.49999987	     31.94814481	     -5.32571161	     -0.91205027	     14.13962562	      0.24678302	    -24.37785700	      0.32084662	     -7.49999987	     -6.64710861	     -1.29289573	     -1.79089520	    -11.88067330	    -17.37015710	     11.24249022	     25.70082402	     59.54108753	    -22.57896794	    -47.45665694	    -40.03337780	     15.38264591	     52.84908077
      2.97916670	    -18.96539637	      2.46017686	      2.17349417	      0.29672712	      1.09580805	     -0.02118771	     27.83035667	     -6.72302154	    -15.83129750	      6.48132186	      0.11312041	    -23.71897434	     -7.15824312	     -7.49999987	     32.31430833	     -5.18591459	     -1.46984091	     14.24044537	      0.24854266	    -24.28439563	      0.07853303	     -7.49999987	     -6.52411223	     -1.41469028	     -1.57341333	    -12.03267769	    -17.28256669	     10.06893614	     25.56731370	     59.40621820	    -22.67744556	    -48.19242625	    -41.79121124	     16.02258805	     52.94390572
      2.98333330	    -19.21276685	      2.43991606	      2.10530394	      0.29661462	      1.09164916	     -0.02120518	     28.05097952	     -6.84855995	    -15.68966216	      6.19838799	      0.10818228	    -24.80475982	     -6.80502914	     -7.49999987	     32.68189030	     -5.23245731	     -1.65120079	     14.29071428	      0.24942002	    -24.43860211	     -0.14421655	     -7.49999987	     -6.53540782	     -1.36304462	     -1.48962497	    -11.92561055	    -17.17088611	      9.22541317	     25.23527877	     59.40315007	    -22.46584448	    -48.94253881	    -43.31064443	     16.09063015	     52.59897932
      2.98750000	    -19.26124999	      2.21601054	      2.26848661	      0.29661021	      1.08253789	     -0.02150862	     27.93545469	     -6.62141931	    -15.24442222	      6.05713687	      0.10571698	    -25.95516781	     -6.34554973	     -7.49999987	     32.85419665	     -5.33662297	     -1.64982163	     14.49521822	      0.25298928	    -23.86903938	     -0.60148631	     -7.49999987	     -6.87251975	     -1.03319347	     -1.63804728	    -11.92469643	    -17.18026876	      8.40874656	     25.41379047	     59.27362908	    -22.34481622	    -49.54683833	    -45.02938284	     15.92029892	     52.69768535
      2.99166670	    -19.43958489	      1.95743453	      2.37312862	      0.29630400	      1.07740232	     -0.02154215	     27.84654031	     -6.37443619	    -15.01361017	      5.87284836	      0.10250054	    -27.02558295	     -5.61290320	     -7.49999987	     33.02764965	     -5.35643896	     -1.58423180	     14.49761215	      0.25303107	    -23.21288786	      0.12033924	     -7.49999987	     -6.89619130	     -0.67362683	     -1.44395439	    -11.99175376	    -17.08615113	      7.50790437	     24.81796209	     59.13350165	    -21.28369994	    -49.80155276	    -47.50207612	     16.06357960	     52.92654516
